<svg xmlns="http://www.w3.org/2000/svg" version="1.1" xmlns:xlink="http://www.w3.org/1999/xlink" xmlns:svgjs="http://svgjs.com/svgjs" width="512" height="512" x="0" y="0" viewBox="0 0 512.00002 512" style="enable-background:new 0 0 512 512" xml:space="preserve" class=""><g><path xmlns="http://www.w3.org/2000/svg" d="m298.78125 339.28125c-11.746094 0-21.300781 9.554688-21.300781 21.300781 0 11.746094 9.554687 21.300781 21.300781 21.300781s21.300781-9.554687 21.300781-21.300781c0-11.746093-9.554687-21.300781-21.300781-21.300781zm0 0" fill="#e0d2b4" data-original="#000000" style="" class=""></path><path xmlns="http://www.w3.org/2000/svg" d="m166.554688 259.152344c11.742187 0 21.300781-9.558594 21.300781-21.300782 0-11.746093-9.558594-21.300781-21.300781-21.300781-11.746094 0-21.300782 9.554688-21.300782 21.300781 0 11.742188 9.554688 21.300782 21.300782 21.300782zm0 0" fill="#e0d2b4" data-original="#000000" style="" class=""></path><path xmlns="http://www.w3.org/2000/svg" d="m296.765625 136.417969c11.746094 0 21.300781-9.554688 21.300781-21.300781 0-11.742188-9.554687-21.296876-21.300781-21.296876s-21.300781 9.554688-21.300781 21.296876c0 11.746093 9.554687 21.300781 21.300781 21.300781zm0 0" fill="#e0d2b4" data-original="#000000" style="" class=""></path><path xmlns="http://www.w3.org/2000/svg" d="m441.308594 0h-370.617188c-38.980468 0-70.691406 31.710938-70.691406 70.691406v335.601563c0 38.980469 31.710938 70.695312 70.691406 70.695312h370.617188c38.980468 0 70.691406-31.714843 70.691406-70.695312v-335.601563c0-38.980468-31.710938-70.691406-70.691406-70.691406zm-362.617188 100.09375h168.972656c6.4375-21.003906 26.011719-36.324219 49.101563-36.324219 23.085937 0 42.660156 15.320313 49.101563 36.324219h87.394531c8.296875 0 15.027343 6.730469 15.027343 15.027344s-6.730468 15.023437-15.027343 15.023437h-87.394531c-6.441407 21.007813-26.015626 36.324219-49.101563 36.324219-23.089844 0-42.664063-15.316406-49.101563-36.324219h-168.972656c-8.296875 0-15.023437-6.726562-15.023437-15.023437s6.726562-15.027344 15.023437-15.027344zm0 122.730469h38.757813c6.441406-21.003907 26.015625-36.324219 49.101562-36.324219 23.089844 0 42.664063 15.320312 49.105469 36.324219h217.605469c8.296875 0 15.023437 6.730469 15.023437 15.027343 0 8.296876-6.726562 15.023438-15.023437 15.023438h-217.605469c-6.441406 21.007812-26.015625 36.324219-49.101562 36.324219-23.089844 0-42.664063-15.316407-49.101563-36.324219h-38.761719c-8.296875 0-15.023437-6.726562-15.023437-15.023438 0-8.296874 6.726562-15.027343 15.023437-15.027343zm356.589844 152.78125h-87.398438c-6.441406 21.007812-26.015624 36.324219-49.101562 36.324219-23.089844 0-42.660156-15.316407-49.101562-36.324219h-168.96875c-8.300782 0-15.027344-6.726563-15.027344-15.023438s6.726562-15.027343 15.027344-15.027343h168.96875c6.441406-21.003907 26.015624-36.324219 49.101562-36.324219s42.660156 15.320312 49.101562 36.324219h87.398438c8.296875 0 15.023438 6.730468 15.023438 15.027343s-6.726563 15.023438-15.023438 15.023438zm0 0" fill="#e0d2b4" data-original="#000000" style="" class=""></path></g></svg>