<svg xmlns="http://www.w3.org/2000/svg" version="1.1" xmlns:xlink="http://www.w3.org/1999/xlink" xmlns:svgjs="http://svgjs.com/svgjs" width="512" height="512" x="0" y="0" viewBox="0 0 25 25" style="enable-background:new 0 0 512 512" xml:space="preserve" class=""><g><g xmlns="http://www.w3.org/2000/svg"><path d="m21 8.4h-5.7c.4-.7.6-1.5.7-2.4.4-2.3-1.4-4.3-3.7-4.3h-.6c-.4 0-.8.4-.8.8v2.4c0 1.9-1 3.7-2.7 4.7v12.5l.8.6c.6.4 1.3.7 2 .7h8.8c1.7 0 3.1-1.2 3.3-2.8l1.3-8.3c.4-2-1-3.9-3.4-3.9z" fill="#e0d2b4" data-original="#000000" style="" class=""></path><path d="m2 22.7h2.6c.8 0 1.5-.7 1.5-1.5v-10.2c0-.8-.7-1.5-1.5-1.5h-2.6c-.8 0-1.5.7-1.5 1.5v10.2c0 .8.7 1.5 1.5 1.5z" fill="#e0d2b4" data-original="#000000" style="" class=""></path></g></g></svg>