<svg xmlns="http://www.w3.org/2000/svg" version="1.1" xmlns:xlink="http://www.w3.org/1999/xlink" xmlns:svgjs="http://svgjs.com/svgjs" width="512" height="512" x="0" y="0" viewBox="0 0 64 64" style="enable-background:new 0 0 512 512" xml:space="preserve" class=""><g><g xmlns="http://www.w3.org/2000/svg" id="Suggestion"><path d="m48.16 13h-40.32a3.787 3.787 0 0 0 -3.84 3.73v26.05a3.776 3.776 0 0 0 3.83 3.72h12.07a.877.877 0 0 1 .72.37l6.67 9.76a.87.87 0 0 0 1.42 0l6.71-9.76a.877.877 0 0 1 .72-.37h12.03a3.776 3.776 0 0 0 3.83-3.72v-26.05a3.787 3.787 0 0 0 -3.84-3.73zm-34.16 6.75h12a2 2 0 0 1 0 4h-12a2 2 0 0 1 0-4zm18 20h-18a2 2 0 0 1 0-4h18a2 2 0 0 1 0 4zm10 0h-4a2 2 0 0 1 0-4h4a2 2 0 0 1 0 4zm0-8h-28a2 2 0 0 1 0-4h28a2 2 0 0 1 0 4z" fill="#e0d2b4" data-original="#000000" style="" class=""></path><path d="m54.16 6.58h-40.32a3.787 3.787 0 0 0 -3.84 3.73v.69h38.16a5.792 5.792 0 0 1 5.84 5.73v23.35a3.784 3.784 0 0 0 4-3.72v-26.05a3.787 3.787 0 0 0 -3.84-3.73z" fill="#e0d2b4" data-original="#000000" style="" class=""></path></g></g></svg>