<svg xmlns="http://www.w3.org/2000/svg" version="1.1" xmlns:xlink="http://www.w3.org/1999/xlink" xmlns:svgjs="http://svgjs.com/svgjs" width="512" height="512" x="0" y="0" viewBox="0 0 32 32" style="enable-background:new 0 0 512 512" xml:space="preserve" class=""><g><path xmlns="http://www.w3.org/2000/svg" d="m26.748 25.327-9.333-9.327 9.327-9.333c.391-.391.391-1.024 0-1.415-.391-.39-1.023-.39-1.414 0l-9.328 9.334-9.334-9.329c-.391-.39-1.023-.39-1.414 0s-.391 1.024 0 1.415l9.334 9.328-9.327 9.333c-.391.391-.391 1.024 0 1.414.195.195.451.293.707.293s.512-.098.707-.293l9.328-9.334 9.333 9.327c.195.195.451.293.707.293s.512-.098.707-.293c.391-.389.391-1.023 0-1.413z" fill="#c1bbb0" data-original="#000000" style="" class=""></path></g></svg>