<svg xmlns="http://www.w3.org/2000/svg" version="1.1" xmlns:xlink="http://www.w3.org/1999/xlink" xmlns:svgjs="http://svgjs.com/svgjs" width="512" height="512" x="0" y="0" viewBox="0 0 512 512" style="enable-background:new 0 0 512 512" xml:space="preserve" class=""><g><circle xmlns="http://www.w3.org/2000/svg" cx="256" cy="256" r="149.255" fill="#043b3b" data-original="#000000" style="" class=""></circle><path xmlns="http://www.w3.org/2000/svg" d="m256 67.293a10 10 0 0 1 -10-10v-47.293a10 10 0 0 1 20 0v47.293a10 10 0 0 1 -10 10z" fill="#043b3b" data-original="#000000" style="" class=""></path><path xmlns="http://www.w3.org/2000/svg" d="m256 512a10 10 0 0 1 -10-10v-47.293a10 10 0 0 1 20 0v47.293a10 10 0 0 1 -10 10z" fill="#043b3b" data-original="#000000" style="" class=""></path><path xmlns="http://www.w3.org/2000/svg" d="m156.656 93.916a10 10 0 0 1 -8.67-5l-23.646-40.958a10 10 0 1 1 17.32-10l23.647 40.957a10 10 0 0 1 -8.651 15z" fill="#043b3b" data-original="#000000" style="" class=""></path><path xmlns="http://www.w3.org/2000/svg" d="m379.009 479.044a9.993 9.993 0 0 1 -8.669-5l-23.647-40.957a10 10 0 0 1 17.321-10l23.646 40.957a10 10 0 0 1 -8.651 15z" fill="#043b3b" data-original="#000000" style="" class=""></path><path xmlns="http://www.w3.org/2000/svg" d="m83.905 166.648a9.953 9.953 0 0 1 -4.99-1.341l-40.957-23.647a10 10 0 1 1 10-17.32l40.957 23.646a10 10 0 0 1 -5.01 18.662z" fill="#043b3b" data-original="#000000" style="" class=""></path><path xmlns="http://www.w3.org/2000/svg" d="m469.033 389a9.959 9.959 0 0 1 -4.991-1.341l-40.957-23.646a10 10 0 0 1 10-17.321l40.957 23.647a10 10 0 0 1 -5.009 18.661z" fill="#043b3b" data-original="#000000" style="" class=""></path><path xmlns="http://www.w3.org/2000/svg" d="m57.293 266h-47.293a10 10 0 0 1 0-20h47.293a10 10 0 1 1 0 20z" fill="#043b3b" data-original="#000000" style="" class=""></path><path xmlns="http://www.w3.org/2000/svg" d="m502 266h-47.293a10 10 0 0 1 0-20h47.293a10 10 0 0 1 0 20z" fill="#043b3b" data-original="#000000" style="" class=""></path><path xmlns="http://www.w3.org/2000/svg" d="m42.967 389a10 10 0 0 1 -5.009-18.661l40.957-23.647a10 10 0 0 1 10 17.321l-40.957 23.647a9.959 9.959 0 0 1 -4.991 1.34z" fill="#043b3b" data-original="#000000" style="" class=""></path><path xmlns="http://www.w3.org/2000/svg" d="m428.1 166.648a10 10 0 0 1 -5.01-18.662l40.957-23.646a10 10 0 1 1 10 17.32l-40.957 23.647a9.953 9.953 0 0 1 -4.99 1.341z" fill="#043b3b" data-original="#000000" style="" class=""></path><path xmlns="http://www.w3.org/2000/svg" d="m132.991 479.044a10 10 0 0 1 -8.651-15l23.646-40.957a10 10 0 0 1 17.321 10l-23.647 40.955a10 10 0 0 1 -8.669 5.002z" fill="#043b3b" data-original="#000000" style="" class=""></path><path xmlns="http://www.w3.org/2000/svg" d="m355.344 93.916a10 10 0 0 1 -8.651-15l23.647-40.958a10 10 0 1 1 17.32 10l-23.646 40.957a10 10 0 0 1 -8.67 5.001z" fill="#043b3b" data-original="#000000" style="" class=""></path></g></svg>