<svg xmlns="http://www.w3.org/2000/svg" version="1.1" xmlns:xlink="http://www.w3.org/1999/xlink" xmlns:svgjs="http://svgjs.com/svgjs" width="512" height="512" x="0" y="0" viewBox="0 0 513.012 513.012" style="enable-background:new 0 0 512 512" xml:space="preserve" class=""><g><g xmlns="http://www.w3.org/2000/svg"><g><circle cx="256.506" cy="256.506" fill="#00908e" r="149.158" data-original="#f5d573" style="" class=""></circle></g><g><path d="m405.666 256.506c0 82.38-66.78 149.16-149.16 149.16-36.46 0-69.87-13.09-95.78-34.82 19.94 9.89 42.41 15.45 66.18 15.45 82.38 0 149.16-66.78 149.16-149.16 0-45.9-20.73-86.96-53.35-114.32 49.16 24.39 82.95 75.09 82.95 133.69z" fill="#00908e" data-original="#f7c22c" style="" class=""></path></g><g fill="#ff9100"><path d="m256.506 57.593c4.143 0 7.5-3.358 7.5-7.5v-42.593c0-4.142-3.357-7.5-7.5-7.5-4.142 0-7.5 3.358-7.5 7.5v42.593c0 4.142 3.358 7.5 7.5 7.5z" fill="#00908e" data-original="#ff9100" style="" class=""></path><path d="m256.506 455.418c-4.142 0-7.5 3.358-7.5 7.5v42.593c0 4.142 3.358 7.5 7.5 7.5 4.143 0 7.5-3.358 7.5-7.5v-42.593c0-4.142-3.358-7.5-7.5-7.5z" fill="#00908e" data-original="#ff9100" style="" class=""></path><path d="m146.804 81.497c1.389 2.406 3.91 3.751 6.502 3.751 1.272 0 2.562-.324 3.743-1.006 3.587-2.071 4.816-6.658 2.745-10.245l-21.296-36.886c-2.071-3.587-6.658-4.816-10.245-2.745s-4.816 6.658-2.745 10.245z" fill="#00908e" data-original="#ff9100" style="" class=""></path><path d="m366.207 431.515c-2.072-3.588-6.66-4.815-10.245-2.745-3.587 2.071-4.816 6.658-2.745 10.245l21.297 36.886c1.39 2.406 3.91 3.751 6.502 3.751 1.272 0 2.563-.324 3.743-1.006 3.587-2.071 4.816-6.658 2.745-10.245z" fill="#00908e" data-original="#ff9100" style="" class=""></path><path d="m81.497 146.804-36.886-21.296c-3.587-2.072-8.174-.842-10.245 2.745s-.842 8.174 2.745 10.245l36.886 21.296c1.181.682 2.471 1.006 3.743 1.006 2.592 0 5.113-1.346 6.502-3.751 2.071-3.587.842-8.174-2.745-10.245z" fill="#00908e" data-original="#ff9100" style="" class=""></path><path d="m475.901 374.514-36.887-21.296c-3.589-2.072-8.176-.842-10.245 2.745-2.071 3.587-.842 8.174 2.745 10.245l36.887 21.296c1.182.682 2.471 1.006 3.743 1.006 2.592 0 5.113-1.346 6.502-3.751 2.072-3.588.842-8.175-2.745-10.245z" fill="#00908e" data-original="#ff9100" style="" class=""></path><path d="m57.593 256.506c0-4.142-3.358-7.5-7.5-7.5h-42.593c-4.142 0-7.5 3.358-7.5 7.5s3.358 7.5 7.5 7.5h42.593c4.142 0 7.5-3.358 7.5-7.5z" fill="#00908e" data-original="#ff9100" style="" class=""></path><path d="m505.512 249.006h-42.593c-4.143 0-7.5 3.358-7.5 7.5s3.357 7.5 7.5 7.5h42.593c4.143 0 7.5-3.358 7.5-7.5s-3.358-7.5-7.5-7.5z" fill="#00908e" data-original="#ff9100" style="" class=""></path><path d="m73.997 353.217-36.886 21.296c-3.587 2.071-4.816 6.658-2.745 10.245 1.389 2.406 3.91 3.751 6.502 3.751 1.272 0 2.562-.324 3.743-1.006l36.886-21.296c3.587-2.071 4.816-6.658 2.745-10.245-2.072-3.587-6.659-4.816-10.245-2.745z" fill="#00908e" data-original="#ff9100" style="" class=""></path><path d="m435.271 160.801c1.272 0 2.563-.324 3.743-1.006l36.887-21.296c3.587-2.071 4.816-6.658 2.745-10.245-2.07-3.587-6.659-4.817-10.245-2.745l-36.887 21.296c-3.587 2.071-4.816 6.658-2.745 10.245 1.389 2.406 3.911 3.751 6.502 3.751z" fill="#00908e" data-original="#ff9100" style="" class=""></path><path d="m157.049 428.77c-3.587-2.072-8.174-.842-10.245 2.745l-21.296 36.886c-2.071 3.587-.842 8.174 2.745 10.245 1.181.682 2.471 1.006 3.743 1.006 2.592 0 5.113-1.346 6.502-3.751l21.296-36.886c2.072-3.588.843-8.175-2.745-10.245z" fill="#00908e" data-original="#ff9100" style="" class=""></path><path d="m355.962 84.242c1.181.682 2.471 1.006 3.743 1.006 2.592 0 5.113-1.345 6.502-3.751l21.297-36.886c2.071-3.587.842-8.174-2.745-10.245-3.586-2.072-8.175-.843-10.245 2.745l-21.297 36.886c-2.071 3.587-.842 8.174 2.745 10.245z" fill="#00908e" data-original="#ff9100" style="" class=""></path></g></g></g></svg>