<svg xmlns="http://www.w3.org/2000/svg" version="1.1" xmlns:xlink="http://www.w3.org/1999/xlink" xmlns:svgjs="http://svgjs.com/svgjs" width="512" height="512" x="0" y="0" viewBox="0 0 512 512" style="enable-background:new 0 0 512 512" xml:space="preserve" class=""><g><path xmlns="http://www.w3.org/2000/svg" d="m377 242c-74.441406 0-135 60.558594-135 135s60.558594 135 135 135 135-60.558594 135-135-60.558594-135-135-135zm60 150h-60c-8.289062 0-15-6.710938-15-15v-60c0-8.289062 6.710938-15 15-15s15 6.710938 15 15v45h45c8.289062 0 15 6.710938 15 15s-6.710938 15-15 15zm0 0" fill="#e0d2b4" data-original="#000000" style="" class=""></path><path xmlns="http://www.w3.org/2000/svg" d="m481 46c0-8.402344-6.597656-15-15-15h-75v45c0 8.398438-6.597656 15-15 15s-15-6.601562-15-15v-45h-60v45c0 8.398438-6.597656 15-15 15s-15-6.601562-15-15v-45h-60v45c0 8.398438-6.597656 15-15 15s-15-6.601562-15-15v-45h-60v45c0 8.398438-6.597656 15-15 15s-15-6.601562-15-15v-45h-76c-8.402344 0-15 6.597656-15 15v75h481zm0 0" fill="#e0d2b4" data-original="#000000" style="" class=""></path><path xmlns="http://www.w3.org/2000/svg" d="m226 301h3.601562c5.476563-10.640625 11.65625-20.855469 19.21875-30h-22.820312c-8.289062 0-15-6.710938-15-15s6.710938-15 15-15h30c6.144531 0 11.390625 3.707031 13.710938 8.992188 28.738281-24.277344 65.808593-38.992188 106.289062-38.992188h-30c-8.289062 0-15-6.710938-15-15s6.710938-15 15-15h30c8.289062 0 15 6.710938 15 15s-6.710938 15-15 15c39.855469 0 76.453125 14.210938 105 37.820312v-97.820312h-481v285c0 8.289062 6.710938 15 15 15h214.214844c-11.558594-22.53125-18.214844-47.984375-18.214844-75 0-16.511719 2.960938-32.246094 7.496094-47.296875-4.402344-2.613281-7.496094-7.207031-7.496094-12.703125 0-8.289062 6.710938-15 15-15zm0-120h30c8.289062 0 15 6.710938 15 15s-6.710938 15-15 15h-30c-8.289062 0-15-6.710938-15-15s6.710938-15 15-15zm-90 210h-30c-8.289062 0-15-6.710938-15-15s6.710938-15 15-15h30c8.289062 0 15 6.710938 15 15s-6.710938 15-15 15zm0-60h-30c-8.289062 0-15-6.710938-15-15s6.710938-15 15-15h30c8.289062 0 15 6.710938 15 15s-6.710938 15-15 15zm0-60h-30c-8.289062 0-15-6.710938-15-15s6.710938-15 15-15h30c8.289062 0 15 6.710938 15 15s-6.710938 15-15 15zm0-60h-30c-8.289062 0-15-6.710938-15-15s6.710938-15 15-15h30c8.289062 0 15 6.710938 15 15s-6.710938 15-15 15zm0 0" fill="#e0d2b4" data-original="#000000" style="" class=""></path><path xmlns="http://www.w3.org/2000/svg" d="m121 15c0-8.402344-6.597656-15-15-15s-15 6.597656-15 15v16h30zm0 0" fill="#e0d2b4" data-original="#000000" style="" class=""></path><path xmlns="http://www.w3.org/2000/svg" d="m211 15c0-8.402344-6.597656-15-15-15s-15 6.597656-15 15v16h30zm0 0" fill="#e0d2b4" data-original="#000000" style="" class=""></path><path xmlns="http://www.w3.org/2000/svg" d="m301 15c0-8.402344-6.597656-15-15-15s-15 6.597656-15 15v16h30zm0 0" fill="#e0d2b4" data-original="#000000" style="" class=""></path><path xmlns="http://www.w3.org/2000/svg" d="m391 15c0-8.402344-6.597656-15-15-15s-15 6.597656-15 15v16h30zm0 0" fill="#e0d2b4" data-original="#000000" style="" class=""></path></g></svg>