<svg xmlns="http://www.w3.org/2000/svg" version="1.1" xmlns:xlink="http://www.w3.org/1999/xlink" xmlns:svgjs="http://svgjs.com/svgjs" width="512" height="512" x="0" y="0" viewBox="0 0 511 511.99997" style="enable-background:new 0 0 512 512" xml:space="preserve" class=""><g><path xmlns="http://www.w3.org/2000/svg" d="m432.289062 0h-360.109374c-39.527344 0-71.679688 32.164062-71.679688 71.6875v44.472656h503.464844v-44.472656c0-39.523438-32.152344-71.6875-71.675782-71.6875zm-301.777343 82.25c-11.238281 0-20.339844-9.113281-20.339844-20.339844 0-11.226562 9.101563-20.339844 20.339844-20.339844 11.226562 0 20.328125 9.113282 20.328125 20.339844 0 11.226563-9.101563 20.339844-20.328125 20.339844zm243.445312 0c-11.230469 0-20.328125-9.113281-20.328125-20.339844 0-11.226562 9.097656-20.339844 20.328125-20.339844 11.238281 0 20.335938 9.113282 20.335938 20.339844 0 11.226563-9.097657 20.339844-20.335938 20.339844zm0 0" fill="#00908e" data-original="#000000" style="" class=""></path><path xmlns="http://www.w3.org/2000/svg" d="m.5 440.3125c0 39.523438 32.152344 71.6875 71.679688 71.6875h360.109374c39.523438 0 71.675782-32.164062 71.675782-71.6875v-293.304688h-503.464844zm130.359375-66.261719 16.925781-63.996093c2.414063-9.121094 13.796875-12.214844 20.480469-5.5625l46.972656 46.660156c6.691407 6.644531 3.679688 18.046875-5.421875 20.515625l-15.710937 4.265625c29.996093 34.523437 70.386719 32.007812 70.714843 32.082031 82.894532 0 124.996094-100.578125 66.78125-159.636719-38.15625-38.6875-102.304687-37.84375-134.070312 6.820313-4.9375 6.9375-14.570312 8.5625-21.511719 3.628906-6.941406-4.9375-8.566406-14.558594-3.628906-21.5 42.792969-60.183594 129.4375-63.082031 181.175781-10.601563 23.597656 23.925782 36.335938 55.636719 35.875 89.269532-.945312 67.804687-56.832031 122.867187-124.621094 122.867187-.320312-.085937-63.707031 2.914063-102.847656-54.210937l-16.058594 4.359375c-9.101562 2.46875-17.46875-5.839844-15.054687-14.960938zm0 0" fill="#00908e" data-original="#000000" style="" class=""></path></g></svg>