<svg xmlns="http://www.w3.org/2000/svg" version="1.1" xmlns:xlink="http://www.w3.org/1999/xlink" xmlns:svgjs="http://svgjs.com/svgjs" width="512" height="512" x="0" y="0" viewBox="0 0 512 512" style="enable-background:new 0 0 512 512" xml:space="preserve" class=""><g><g xmlns="http://www.w3.org/2000/svg"><path d="m80.2 511.429 121.267-34.559c-3.035-.87-149.479-42.763-140.467-40.184v60.344c0 4.799 2.1 9 6 11.999 4.256 3.31 8.416 3.358 13.2 2.4z" fill="#00908e" data-original="#000000" style="" class=""></path><path d="m445 509.029c3.9-2.999 6-7.2 6-11.999v-60.341c-3.036.868-149.482 42.759-140.469 40.181l121.269 34.559c4.709.943 8.897.949 13.2-2.4z" fill="#00908e" data-original="#000000" style="" class=""></path><path d="m421 15.041c0-10.237-10.031-17.468-19.742-14.231l-130.258 43.412v262.297c10.34-10.005 22.87-17.93 37.178-22.698l112.822-37.598c0-49.971 0-181.733 0-231.182z" fill="#00908e" data-original="#000000" style="" class=""></path><path d="m241 306.525c0-99.684 0-211.332 0-262.303l-130.258-43.412c-9.711-3.237-19.742 3.993-19.742 14.231v231.184l112.822 37.612c14.308 4.762 26.838 12.685 37.178 22.688z" fill="#00908e" data-original="#000000" style="" class=""></path><path d="m491.6 60.929-40.6 15v241.101c0 6.46-4.131 12.188-10.254 14.224l-180 60c-1.538.513-3.149.776-4.746.776s-3.208-.264-4.746-.776l-180-60c-6.123-2.037-10.254-7.764-10.254-14.224v-241.101l-40.6-15c-4.799-1.8-9.901-.899-13.801 1.8-4.198 2.701-6.599 7.5-6.599 12.301v302c0 6.599 4.501 12.599 10.8 14.399 7.191 2.043 2.818.784.872.223 5.663 1.622 47.776 13.409 244.307 69.672.299-.079.771-.203 0 0 .007.002.015.004.022.005 24.98-7.18 18.916-5.132 245.2-69.901 6.299-1.8 10.8-7.8 10.8-14.399v-302c0-4.801-2.401-9.6-6.599-12.301-3.901-2.698-9.003-3.599-13.802-1.799zm-480.312 330.614c-.457-.132-.553-.16 0 0z" fill="#00908e" data-original="#000000" style="" class=""></path><path d="m255.978 461.324s-.027.009 0 0z" fill="#00908e" data-original="#000000" style="" class=""></path><path d="m91 306.219 146.296 48.77c-6.742-19.779-22.319-35.823-42.966-42.691l-103.33-34.46z" fill="#00908e" data-original="#000000" style="" class=""></path><path d="m274.704 354.989 146.296-48.77v-28.383l-103.33 34.448c-20.647 6.879-36.224 22.924-42.966 42.705z" fill="#00908e" data-original="#000000" style="" class=""></path></g></g></svg>

